<mxfile host="app.diagrams.net" agent="Mozilla/5.0 (X11; Linux x86_64) AppleWebKit/537.36 (KHTML, like Gecko) Chrome/128.0.0.0 Safari/537.36" version="24.7.12">
  <diagram name="Page-1" id="XTcU6Ef8AxEBCsLpcCzg">
    <mxGraphModel dx="2074" dy="1186" grid="1" gridSize="10" guides="1" tooltips="1" connect="1" arrows="1" fold="1" page="1" pageScale="1" pageWidth="2000" pageHeight="1000" math="0" shadow="0">
      <root>
        <mxCell id="0" />
        <mxCell id="1" parent="0" />
        <mxCell id="pUQ3ejkgWWw8YafcQ9dp-1" value="GATE_DS_M0" style="whiteSpace=wrap;html=1;aspect=fixed;direction=south;" parent="1" vertex="1">
          <mxGeometry x="160" y="760" width="80" height="80" as="geometry" />
        </mxCell>
        <mxCell id="pUQ3ejkgWWw8YafcQ9dp-3" value="GATE_HI_M0" style="whiteSpace=wrap;html=1;aspect=fixed;" parent="1" vertex="1">
          <mxGeometry x="160" y="160" width="80" height="80" as="geometry" />
        </mxCell>
        <mxCell id="9MZPK8-o0bV_knBi3Sjz-4" value="GATE_M0_PS" style="whiteSpace=wrap;html=1;aspect=fixed;direction=south;" parent="1" vertex="1">
          <mxGeometry x="1760" y="760" width="80" height="80" as="geometry" />
        </mxCell>
        <mxCell id="9MZPK8-o0bV_knBi3Sjz-8" value="Irrigation" style="rounded=0;whiteSpace=wrap;html=1;" parent="1" vertex="1">
          <mxGeometry x="240" y="520" width="850" height="320" as="geometry" />
        </mxCell>
        <mxCell id="9MZPK8-o0bV_knBi3Sjz-9" value="Caves" style="rounded=0;whiteSpace=wrap;html=1;" parent="1" vertex="1">
          <mxGeometry x="1160" y="520" width="520" height="200" as="geometry" />
        </mxCell>
        <mxCell id="9MZPK8-o0bV_knBi3Sjz-10" value="Fungal Chasm" style="rounded=0;whiteSpace=wrap;html=1;" parent="1" vertex="1">
          <mxGeometry x="1680" y="400" width="80" height="440" as="geometry" />
        </mxCell>
        <mxCell id="9MZPK8-o0bV_knBi3Sjz-14" value="Farm Fields" style="rounded=0;whiteSpace=wrap;html=1;" parent="1" vertex="1">
          <mxGeometry x="320" y="400" width="520" height="80" as="geometry" />
        </mxCell>
        <mxCell id="fNJnqV45-GyBIAfxgkm3-2" value="Main Factory Buildings" style="rounded=0;whiteSpace=wrap;html=1;" vertex="1" parent="1">
          <mxGeometry x="840" y="240" width="520" height="240" as="geometry" />
        </mxCell>
        <mxCell id="9MZPK8-o0bV_knBi3Sjz-12" value="Rail Line" style="rounded=0;whiteSpace=wrap;html=1;" parent="1" vertex="1">
          <mxGeometry x="240" y="480" width="1440" height="40" as="geometry" />
        </mxCell>
        <mxCell id="9MZPK8-o0bV_knBi3Sjz-15" value="Tanks" style="rounded=0;whiteSpace=wrap;html=1;" parent="1" vertex="1">
          <mxGeometry x="1160" y="400" width="520" height="80" as="geometry" />
        </mxCell>
        <mxCell id="fNJnqV45-GyBIAfxgkm3-6" value="Eleveation compensation" style="rounded=0;whiteSpace=wrap;html=1;" vertex="1" parent="1">
          <mxGeometry x="240" y="160" width="80" height="320" as="geometry" />
        </mxCell>
        <mxCell id="fNJnqV45-GyBIAfxgkm3-8" value="Big Shroom" style="rounded=0;whiteSpace=wrap;html=1;" vertex="1" parent="1">
          <mxGeometry x="1470" y="240" width="170" height="160" as="geometry" />
        </mxCell>
        <mxCell id="fNJnqV45-GyBIAfxgkm3-9" value="Underground Factory" style="rounded=0;whiteSpace=wrap;html=1;" vertex="1" parent="1">
          <mxGeometry x="700" y="520" width="550" height="320" as="geometry" />
        </mxCell>
      </root>
    </mxGraphModel>
  </diagram>
</mxfile>
